<?xml version="1.0" encoding="utf-8"?>
<!-- Generator: Adobe Illustrator 23.0.3, SVG Export Plug-In . SVG Version: 6.00 Build 0)  -->
<svg version="1.1" xmlns="http://www.w3.org/2000/svg" xmlns:xlink="http://www.w3.org/1999/xlink" x="0px" y="0px"
	 viewBox="0 0 48.4 48" style="enable-background:new 0 0 48.4 48;" xml:space="preserve">
<style type="text/css">
	.st0{display:none;}
	.st1{display:inline;}
	.st2{fill:#235B9E;}
	.st3{fill:#FFFFFF;}
	.st4{display:inline;fill:#FF312E;}
	.st5{display:inline;fill:#00ABE3;}
	.st6{display:inline;fill:#00B2DE;}
	.st7{fill:#2D80A6;}
</style>
<g id="Layer_1" class="st0">
	<g class="st1">
		<path class="st2" d="M48.3,24.1c0,13.3-10.7,24-24,24c-13.3,0-24-10.7-24-24c0-13.3,10.7-24,24-24C37.6,0.1,48.3,10.8,48.3,24.1z"
			/>
		<g>
			<path class="st3" d="M20.3,39.1h6c0,0,0-8.3,0-15h4.5l0.5-6h-4.8v-2.4c0-1.2,0.8-1.4,1.3-1.4c0.5,0,3.4,0,3.4,0V9.1l-4.6,0
				c-5.1,0-6.3,3.8-6.3,6.3v2.7h-3v6h3C20.3,30.9,20.3,39.1,20.3,39.1z"/>
		</g>
		<path class="st2" d="M48.3,24.1c0,13.3-10.7,24-24,24c-13.3,0-24-10.7-24-24c0-13.3,10.7-24,24-24C37.6,0.1,48.3,10.8,48.3,24.1z"
			/>
		<g>
			<path class="st3" d="M20.3,39.1h6c0,0,0-8.3,0-15h4.5l0.5-6h-4.8v-2.4c0-1.2,0.8-1.4,1.3-1.4c0.5,0,3.4,0,3.4,0V9.1l-4.6,0
				c-5.1,0-6.3,3.8-6.3,6.3v2.7h-3v6h3C20.3,30.9,20.3,39.1,20.3,39.1z"/>
		</g>
		<path class="st2" d="M48.3,24.1c0,13.3-10.7,24-24,24c-13.3,0-24-10.7-24-24c0-13.3,10.7-24,24-24C37.6,0.1,48.3,10.8,48.3,24.1z"
			/>
		<g>
			<path class="st3" d="M20.3,39.1h6c0,0,0-8.3,0-15h4.5l0.5-6h-4.8v-2.4c0-1.2,0.8-1.4,1.3-1.4c0.5,0,3.4,0,3.4,0V9.1l-4.6,0
				c-5.1,0-6.3,3.8-6.3,6.3v2.7h-3v6h3C20.3,30.9,20.3,39.1,20.3,39.1z"/>
		</g>
	</g>
</g>
<g id="Layer_2">
	<g class="st0">
		<path class="st4" d="M48,24c0,13.3-10.7,24-24,24C10.7,48,0,37.3,0,24C0,10.7,10.7,0,24,0C37.3,0,48,10.7,48,24z"/>
		<g class="st1">
			<g id="Lozenge_9_">
				<g>
					<path class="st3" d="M38.7,17.7c0,0-0.3-2.2-1.2-3.1c-1.1-1.2-2.4-1.3-3-1.3C30.3,13,24,13,24,13h0c0,0-6.3,0-10.5,0.3
						c-0.6,0.1-1.9,0.1-3,1.3c-0.9,0.9-1.2,3.1-1.2,3.1S9,20.3,9,22.8v2.4c0,2.5,0.3,5.1,0.3,5.1s0.3,2.2,1.2,3.1
						c1.1,1.2,2.6,1.2,3.3,1.3C16.2,34.9,24,35,24,35s6.3,0,10.5-0.3c0.6-0.1,1.9-0.1,3-1.3c0.9-0.9,1.2-3.1,1.2-3.1
						s0.3-2.5,0.3-5.1v-2.4C39,20.3,38.7,17.7,38.7,17.7z M20.9,28.1l0-8.8l8.1,4.4L20.9,28.1z"/>
				</g>
			</g>
		</g>
		<path class="st4" d="M48,24c0,13.3-10.7,24-24,24C10.7,48,0,37.3,0,24C0,10.7,10.7,0,24,0C37.3,0,48,10.7,48,24z"/>
		<g class="st1">
			<g id="Lozenge_11_">
				<g>
					<path class="st3" d="M38.7,17.7c0,0-0.3-2.2-1.2-3.1c-1.1-1.2-2.4-1.3-3-1.3C30.3,13,24,13,24,13h0c0,0-6.3,0-10.5,0.3
						c-0.6,0.1-1.9,0.1-3,1.3c-0.9,0.9-1.2,3.1-1.2,3.1S9,20.3,9,22.8v2.4c0,2.5,0.3,5.1,0.3,5.1s0.3,2.2,1.2,3.1
						c1.1,1.2,2.6,1.2,3.3,1.3C16.2,34.9,24,35,24,35s6.3,0,10.5-0.3c0.6-0.1,1.9-0.1,3-1.3c0.9-0.9,1.2-3.1,1.2-3.1
						s0.3-2.5,0.3-5.1v-2.4C39,20.3,38.7,17.7,38.7,17.7z M20.9,28.1l0-8.8l8.1,4.4L20.9,28.1z"/>
				</g>
			</g>
		</g>
		<path class="st4" d="M48,24c0,13.3-10.7,24-24,24C10.7,48,0,37.3,0,24C0,10.7,10.7,0,24,0C37.3,0,48,10.7,48,24z"/>
		<g class="st1">
			<g id="Lozenge_2_">
				<g>
					<path class="st3" d="M38.7,17.7c0,0-0.3-2.2-1.2-3.1c-1.1-1.2-2.4-1.3-3-1.3C30.3,13,24,13,24,13h0c0,0-6.3,0-10.5,0.3
						c-0.6,0.1-1.9,0.1-3,1.3c-0.9,0.9-1.2,3.1-1.2,3.1S9,20.3,9,22.8v2.4c0,2.5,0.3,5.1,0.3,5.1s0.3,2.2,1.2,3.1
						c1.1,1.2,2.6,1.2,3.3,1.3C16.2,34.9,24,35,24,35s6.3,0,10.5-0.3c0.6-0.1,1.9-0.1,3-1.3c0.9-0.9,1.2-3.1,1.2-3.1
						s0.3-2.5,0.3-5.1v-2.4C39,20.3,38.7,17.7,38.7,17.7z M20.9,28.1l0-8.8l8.1,4.4L20.9,28.1z"/>
				</g>
			</g>
		</g>
	</g>
	<g class="st0">
		<path class="st5" d="M48.4,24c0,13.3-10.7,24-24,24c-13.3,0-24-10.7-24-24c0-13.3,10.7-24,24-24C37.7,0,48.4,10.7,48.4,24z"/>
		<g class="st1">
			<path class="st3" d="M38.6,12.4c-1.2,0.7-2.5,1.2-3.9,1.5C33.6,12.7,32,12,30.2,12c-3.4,0-6.2,2.7-6.2,6.1c0,0.5,0.1,0.9,0.2,1.4
				c-5.1-0.3-9.7-2.7-12.7-6.3c-0.5,0.9-0.8,1.9-0.8,3c0,2.1,1.1,4,2.7,5c-1,0-2-0.3-2.8-0.8c0,0,0,0.1,0,0.1c0,2.9,2.1,5.4,4.9,5.9
				c-0.5,0.1-1.1,0.2-1.6,0.2c-0.4,0-0.8,0-1.2-0.1c0.8,2.4,3.1,4.2,5.8,4.2c-2.1,1.6-4.8,2.6-7.6,2.6c-0.5,0-1,0-1.5-0.1
				c2.7,1.7,6,2.7,9.4,2.7c11.3,0,17.5-9.2,17.5-17.2c0-0.3,0-0.5,0-0.8c1.2-0.9,2.2-1.9,3.1-3.1c-1.1,0.5-2.3,0.8-3.5,1
				C37.2,15,38.1,13.9,38.6,12.4z"/>
		</g>
		<path class="st5" d="M48.4,24c0,13.3-10.7,24-24,24c-13.3,0-24-10.7-24-24c0-13.3,10.7-24,24-24C37.7,0,48.4,10.7,48.4,24z"/>
		<g class="st1">
			<path class="st3" d="M38.6,12.4c-1.2,0.7-2.5,1.2-3.9,1.5C33.6,12.7,32,12,30.2,12c-3.4,0-6.2,2.7-6.2,6.1c0,0.5,0.1,0.9,0.2,1.4
				c-5.1-0.3-9.7-2.7-12.7-6.3c-0.5,0.9-0.8,1.9-0.8,3c0,2.1,1.1,4,2.7,5c-1,0-2-0.3-2.8-0.8c0,0,0,0.1,0,0.1c0,2.9,2.1,5.4,4.9,5.9
				c-0.5,0.1-1.1,0.2-1.6,0.2c-0.4,0-0.8,0-1.2-0.1c0.8,2.4,3.1,4.2,5.8,4.2c-2.1,1.6-4.8,2.6-7.6,2.6c-0.5,0-1,0-1.5-0.1
				c2.7,1.7,6,2.7,9.4,2.7c11.3,0,17.5-9.2,17.5-17.2c0-0.3,0-0.5,0-0.8c1.2-0.9,2.2-1.9,3.1-3.1c-1.1,0.5-2.3,0.8-3.5,1
				C37.2,15,38.1,13.9,38.6,12.4z"/>
		</g>
		<path class="st5" d="M48.4,24c0,13.3-10.7,24-24,24c-13.3,0-24-10.7-24-24c0-13.3,10.7-24,24-24C37.7,0,48.4,10.7,48.4,24z"/>
		<g class="st1">
			<path class="st3" d="M38.6,12.4c-1.2,0.7-2.5,1.2-3.9,1.5C33.6,12.7,32,12,30.2,12c-3.4,0-6.2,2.7-6.2,6.1c0,0.5,0.1,0.9,0.2,1.4
				c-5.1-0.3-9.7-2.7-12.7-6.3c-0.5,0.9-0.8,1.9-0.8,3c0,2.1,1.1,4,2.7,5c-1,0-2-0.3-2.8-0.8c0,0,0,0.1,0,0.1c0,2.9,2.1,5.4,4.9,5.9
				c-0.5,0.1-1.1,0.2-1.6,0.2c-0.4,0-0.8,0-1.2-0.1c0.8,2.4,3.1,4.2,5.8,4.2c-2.1,1.6-4.8,2.6-7.6,2.6c-0.5,0-1,0-1.5-0.1
				c2.7,1.7,6,2.7,9.4,2.7c11.3,0,17.5-9.2,17.5-17.2c0-0.3,0-0.5,0-0.8c1.2-0.9,2.2-1.9,3.1-3.1c-1.1,0.5-2.3,0.8-3.5,1
				C37.2,15,38.1,13.9,38.6,12.4z"/>
		</g>
	</g>
	<g class="st0">
		<path class="st6" d="M48,24c0,13.3-10.7,24-24,24C10.7,48,0,37.3,0,24C0,10.7,10.7,0,24,0C37.3,0,48,10.7,48,24z"/>
		<g class="st1">
			<path class="st3" d="M25.5,27.5c-0.8,0-1.5-2.2-2.4-6c-1-3.9-1-11-5.1-10.2c-3.9,0.8-9,6.8-9,6.8l1.2,1.6c0,0,2.5-2,3.4-1
				c0.8,1,4,12.9,5.1,15.1c0.9,1.9,3.5,4.5,6.3,2.6c2.8-1.8,12.2-9.8,13.9-19.1c1.7-9.4-11.3-7.4-12.6,0.8c3.4-2,5.3,0.8,3.5,4.1
				C28,25.3,26.4,27.5,25.5,27.5z"/>
		</g>
		<path class="st6" d="M48,24c0,13.3-10.7,24-24,24C10.7,48,0,37.3,0,24C0,10.7,10.7,0,24,0C37.3,0,48,10.7,48,24z"/>
		<g class="st1">
			<path class="st3" d="M25.5,27.5c-0.8,0-1.5-2.2-2.4-6c-1-3.9-1-11-5.1-10.2c-3.9,0.8-9,6.8-9,6.8l1.2,1.6c0,0,2.5-2,3.4-1
				c0.8,1,4,12.9,5.1,15.1c0.9,1.9,3.5,4.5,6.3,2.6c2.8-1.8,12.2-9.8,13.9-19.1c1.7-9.4-11.3-7.4-12.6,0.8c3.4-2,5.3,0.8,3.5,4.1
				C28,25.3,26.4,27.5,25.5,27.5z"/>
		</g>
		<path class="st6" d="M48,24c0,13.3-10.7,24-24,24C10.7,48,0,37.3,0,24C0,10.7,10.7,0,24,0C37.3,0,48,10.7,48,24z"/>
		<g class="st1">
			<path class="st3" d="M25.5,27.5c-0.8,0-1.5-2.2-2.4-6c-1-3.9-1-11-5.1-10.2c-3.9,0.8-9,6.8-9,6.8l1.2,1.6c0,0,2.5-2,3.4-1
				c0.8,1,4,12.9,5.1,15.1c0.9,1.9,3.5,4.5,6.3,2.6c2.8-1.8,12.2-9.8,13.9-19.1c1.7-9.4-11.3-7.4-12.6,0.8c3.4-2,5.3,0.8,3.5,4.1
				C28,25.3,26.4,27.5,25.5,27.5z"/>
		</g>
	</g>
	<g>
		<path class="st7" d="M48,24c0,13.3-10.7,24-24,24C10.7,48,0,37.3,0,24C0,10.7,10.7,0,24,0C37.3,0,48,10.7,48,24z"/>
		<g>
			<path class="st3" d="M33.2,9H14.8C11.6,9,9,11.6,9,14.8v6.1v12.3c0,3.2,2.6,5.8,5.8,5.8h18.4c3.2,0,5.8-2.6,5.8-5.8V20.9v-6.1
				C39,11.6,36.4,9,33.2,9z M34.9,12.5l0.7,0v0.7v4.4l-5.1,0l0-5.1L34.9,12.5z M19.7,20.9c1-1.3,2.5-2.2,4.3-2.2s3.3,0.9,4.3,2.2
				c0.6,0.9,1,1.9,1,3.1c0,2.9-2.4,5.3-5.3,5.3c-2.9,0-5.3-2.4-5.3-5.3C18.7,22.9,19.1,21.8,19.7,20.9z M36.1,33.2
				c0,1.6-1.3,2.9-2.9,2.9H14.8c-1.6,0-2.9-1.3-2.9-2.9V20.9h4.5c-0.4,1-0.6,2-0.6,3.1c0,4.5,3.7,8.2,8.2,8.2c4.5,0,8.2-3.7,8.2-8.2
				c0-1.1-0.2-2.1-0.6-3.1h4.5V33.2z"/>
		</g>
		<path class="st7" d="M48,24c0,13.3-10.7,24-24,24C10.7,48,0,37.3,0,24C0,10.7,10.7,0,24,0C37.3,0,48,10.7,48,24z"/>
		<g>
			<path class="st3" d="M33.2,9H14.8C11.6,9,9,11.6,9,14.8v6.1v12.3c0,3.2,2.6,5.8,5.8,5.8h18.4c3.2,0,5.8-2.6,5.8-5.8V20.9v-6.1
				C39,11.6,36.4,9,33.2,9z M34.9,12.5l0.7,0v0.7v4.4l-5.1,0l0-5.1L34.9,12.5z M19.7,20.9c1-1.3,2.5-2.2,4.3-2.2s3.3,0.9,4.3,2.2
				c0.6,0.9,1,1.9,1,3.1c0,2.9-2.4,5.3-5.3,5.3c-2.9,0-5.3-2.4-5.3-5.3C18.7,22.9,19.1,21.8,19.7,20.9z M36.1,33.2
				c0,1.6-1.3,2.9-2.9,2.9H14.8c-1.6,0-2.9-1.3-2.9-2.9V20.9h4.5c-0.4,1-0.6,2-0.6,3.1c0,4.5,3.7,8.2,8.2,8.2c4.5,0,8.2-3.7,8.2-8.2
				c0-1.1-0.2-2.1-0.6-3.1h4.5V33.2z"/>
		</g>
		<path class="st7" d="M48,24c0,13.3-10.7,24-24,24C10.7,48,0,37.3,0,24C0,10.7,10.7,0,24,0C37.3,0,48,10.7,48,24z"/>
		<g>
			<path class="st3" d="M33.2,9H14.8C11.6,9,9,11.6,9,14.8v6.1v12.3c0,3.2,2.6,5.8,5.8,5.8h18.4c3.2,0,5.8-2.6,5.8-5.8V20.9v-6.1
				C39,11.6,36.4,9,33.2,9z M34.9,12.5l0.7,0v0.7v4.4l-5.1,0l0-5.1L34.9,12.5z M19.7,20.9c1-1.3,2.5-2.2,4.3-2.2s3.3,0.9,4.3,2.2
				c0.6,0.9,1,1.9,1,3.1c0,2.9-2.4,5.3-5.3,5.3c-2.9,0-5.3-2.4-5.3-5.3C18.7,22.9,19.1,21.8,19.7,20.9z M36.1,33.2
				c0,1.6-1.3,2.9-2.9,2.9H14.8c-1.6,0-2.9-1.3-2.9-2.9V20.9h4.5c-0.4,1-0.6,2-0.6,3.1c0,4.5,3.7,8.2,8.2,8.2c4.5,0,8.2-3.7,8.2-8.2
				c0-1.1-0.2-2.1-0.6-3.1h4.5V33.2z"/>
		</g>
	</g>
</g>
</svg>
